<?xml version="1.0" encoding="UTF-8" standalone="no"?>
<svg width="80px" height="28px" viewBox="0 0 80 28" version="1.1" xmlns="http://www.w3.org/2000/svg" xmlns:xlink="http://www.w3.org/1999/xlink" xmlns:sketch="http://www.bohemiancoding.com/sketch/ns">
    <!-- Generator: Sketch 3.0.1 (7597) - http://www.bohemiancoding.com/sketch -->
    <title>Slice 1</title>
    <description>Created with Sketch.</description>
    <defs></defs>
    <g id="Page-1" stroke="none" stroke-width="1" fill="none" fill-rule="evenodd" sketch:type="MSPage">
        <g id="CocoaDocs-copy-2" sketch:type="MSLayerGroup">
            <path d="M9,2.67002856 L5.26765082,1 L0,14.0830708 L5.32083173,27 L8.97423193,25.361745 L4.38057141,14.0488089 L9,2.67002856 Z" id="&lt;-copy" fill="#F5F5F5" sketch:type="MSShapeGroup"></path>
            <path d="M80,2.67002856 L76.2676508,1 L71,14.0830708 L76.3208317,27 L79.9742319,25.361745 L75.3805714,14.0488089 L80,2.67002856 Z" id="&lt;-copy" fill="#D1C4C0" sketch:type="MSShapeGroup" transform="translate(75.500000, 14.000000) scale(-1, 1) translate(-75.500000, -14.000000) "></path>
            <path d="M26.04,22.4456522 C21.3103448,22.4456522 18.1448276,18.6793478 18.1448276,14 C18.1448276,9.58695652 20.9751724,5.55434783 25.9655172,5.55434783 C29.8013793,5.55434783 32.1103448,7.91304348 32.6689655,11.0326087 L38.9627586,11.0326087 C38.2551724,4.9076087 33.5255172,0 25.8910345,0 C16.9903448,0 12,6.69565217 12,14 C12,21.4565217 17.2510345,28 25.9655172,28 C33.2648276,28 37.9944828,23.3967391 39,17.7663043 L32.5944828,17.7663043 C31.8496552,20.3913043 29.5406897,22.4456522 26.04,22.4456522 Z" id="C-copy" fill="#F5F5F5" sketch:type="MSShapeGroup"></path>
            <path d="M44,1 L44,28 L53.5185185,28 C62.1481481,28 67,21.4042857 67,14.5 C67,7.59571429 62.1111111,1 53.5185185,1 L44,1 Z M53.255102,6 C58.1564626,6 61,9.88571429 61,14 C61,18.1142857 58.1564626,22 53.255102,22 L50,22 L50,6 L53.255102,6 Z" id="DOCS" fill="#D1C4C0" sketch:type="MSShapeGroup"></path>
        </g>
    </g>
</svg>