<?xml version="1.0" encoding="UTF-8" standalone="no"?>
<svg width="264px" height="28px" viewBox="0 0 264 28" version="1.1" xmlns="http://www.w3.org/2000/svg" xmlns:xlink="http://www.w3.org/1999/xlink" xmlns:sketch="http://www.bohemiancoding.com/sketch/ns">
    <g id="Page-1" stroke="none" stroke-width="1" fill="none" fill-rule="evenodd" sketch:type="MSPage">
        <g id="CocoaDocs" sketch:type="MSLayerGroup">
            <path class="first-half" d="M9,2.67002856 L5.26765082,1 L0,14.0830708 L5.32083173,27 L8.97423193,25.361745 L4.38057141,14.0488089 L9,2.67002856 Z" id="&lt;-copy" sketch:type="MSShapeGroup"></path>
            <path class="second-half" d="M264,2.67002856 L260.267651,1 L255,14.0830708 L260.320832,27 L263.974232,25.361745 L259.380571,14.0488089 L264,2.67002856 Z" id="&lt;-copy" sketch:type="MSShapeGroup" transform="translate(259.500000, 14.000000) scale(-1, 1) translate(-259.500000, -14.000000) "></path>
            <path class="first-half" d="M26.04,22.4456522 C21.3103448,22.4456522 18.1448276,18.6793478 18.1448276,14 C18.1448276,9.58695652 20.9751724,5.55434783 25.9655172,5.55434783 C29.8013793,5.55434783 32.1103448,7.91304348 32.6689655,11.0326087 L38.9627586,11.0326087 C38.2551724,4.9076087 33.5255172,0 25.8910345,0 C16.9903448,0 12,6.69565217 12,14 C12,21.4565217 17.2510345,28 25.9655172,28 C33.2648276,28 37.9944828,23.3967391 39,17.7663043 L32.5944828,17.7663043 C31.8496552,20.3913043 29.5406897,22.4456522 26.04,22.4456522 Z" id="C-copy"  sketch:type="MSShapeGroup"></path>
            <path class="first-half" d="M55.0188934,28 C63.7854251,28 69,21.3043478 69,14 C69,6.69565217 63.7854251,0 55.0188934,0 C46.2145749,0 41,6.69565217 41,14 C41,21.3043478 46.2145749,28 55.0188934,28 C55.0188934,28 46.2145749,28 55.0188934,28 Z M54.5,22 C49.8170732,22 47,17.9031532 47,13.5 C47,9.09684685 49.8170732,5 54.5,5 C59.1463415,5 62,9.09684685 62,13.5 C62,17.9031532 59.1463415,22 54.5,22 Z" id="O-body-copy"  sketch:type="MSShapeGroup"></path>
            <path class="first-half" d="M84.04,22.4456522 C79.3103448,22.4456522 76.1448276,18.6793478 76.1448276,14 C76.1448276,9.58695652 78.9751724,5.55434783 83.9655172,5.55434783 C87.8013793,5.55434783 90.1103448,7.91304348 90.6689655,11.0326087 L96.9627586,11.0326087 C96.2551724,4.9076087 91.5255172,0 83.8910345,0 C74.9903448,0 70,6.69565217 70,14 C70,21.4565217 75.2510345,28 83.9655172,28 C91.2648276,28 95.9944828,23.3967391 97,17.7663043 L90.5944828,17.7663043 C89.8496552,20.3913043 87.5406897,22.4456522 84.04,22.4456522 Z" id="C-copy"  sketch:type="MSShapeGroup"></path>
            <path class="first-half" d="M113.018893,28 C121.785425,28 127,21.3043478 127,14 C127,6.69565217 121.785425,0 113.018893,0 C104.214575,0 99,6.69565217 99,14 C99,21.3043478 104.214575,28 113.018893,28 C113.018893,28 104.214575,28 113.018893,28 Z M112.5,23 C107.817073,23 105,18.9031532 105,14.5 C105,10.0968468 107.817073,6 112.5,6 C117.146341,6 120,10.0968468 120,14.5 C120,18.9031532 117.146341,23 112.5,23 Z" id="cocoa"  sketch:type="MSShapeGroup"></path>
            <path class="first-half" d="M136.604294,1 L146,1 L146,26.9689282 L139.96334,26.9689282 L139.96334,23.8288129 L132.056069,23.8288129 L130.645216,27 L124,27 L136.604294,1 Z M140,6 L140,19 L134,19 L140,6 Z" id="A-body-copy" sketch:type="MSShapeGroup"></path>
            <path class="second-half" d="M146,1 L146,28 L155.518519,28 C164.148148,28 169,21.4042857 169,14.5 C169,7.59571429 164.111111,1 155.518519,1 L146,1 Z M155.255102,6 C160.156463,6 163,9.88571429 163,14 C163,18.1142857 160.156463,22 155.255102,22 L152,22 L152,6 L155.255102,6 Z M186.018893,28 C194.785425,28 200,21.3043478 200,14 C200,6.69565217 194.785425,0 186.018893,0 C177.214575,0 172,6.69565217 172,14 C172,21.3043478 177.214575,28 186.018893,28 Z M185.5,23 C180.817073,23 178,18.9031532 178,14.5 C178,10.0968468 180.817073,6 185.5,6 C190.146341,6 193,10.0968468 193,14.5 C193,18.9031532 190.146341,23 185.5,23 Z M222.594483,17.7663043 C221.849655,20.3913043 219.54069,22.4456522 216.04,22.4456522 C211.310345,22.4456522 208.144828,18.6793478 208.144828,14 C208.144828,9.58695652 210.975172,5.55434783 215.965517,5.55434783 C219.801379,5.55434783 222.110345,7.91304348 222.668966,11.0326087 L228.962759,11.0326087 C228.255172,4.9076087 223.525517,0 215.891034,0 C206.990345,0 202,6.69565217 202,14 C202,21.4565217 207.251034,28 215.965517,28 C223.264828,28 227.994483,23.3967391 229,17.7663043 L222.594483,17.7663043 Z M232,18.4891304 C232,24.576087 236.250474,28 242.170778,28 C247.863378,28 252,24.8043478 252,19.6304348 C252,14.1902174 247.370019,12.5163043 242.664137,10.8804348 C240.273245,10.0434783 238.86907,9.05434783 238.86907,7.3423913 C238.86907,5.5923913 240.349146,4.64130435 242.056926,4.64130435 C244.220114,4.64130435 245.396584,6.125 245.396584,8.48369565 L251.544592,8.48369565 C251.544592,3.95652174 248.356736,0 242.132827,0 C237.237192,0 232.759013,2.43478261 232.759013,7.72282609 C232.759013,12.8967391 237.047438,14.4945652 241.753321,16.2445652 C244.106262,17.1195652 245.889943,17.8804348 245.889943,19.9728261 C245.889943,21.8369565 244.409867,23.0923913 242.360531,23.0923913 C239.931689,23.0923913 238.148008,21.3804348 238.148008,18.4891304 L232,18.4891304 Z" sketch:type="MSShapeGroup"></path>
        </g>
    </g>
</svg>