<svg width="53px" height="59px" viewBox="0 0 53 59" version="1.1" xmlns="http://www.w3.org/2000/svg" xmlns:xlink="http://www.w3.org/1999/xlink" xmlns:sketch="http://www.bohemiancoding.com/sketch/ns">
    <g id="Page-6" stroke="none" stroke-width="1" fill="none" fill-rule="evenodd" sketch:type="MSPage">
        <g id="dash2" sketch:type="MSLayerGroup" transform="translate(1.000000, 1.000000)" stroke="#FFFFFF">
            <path d="M6,3.92062308 L39.268934,0.214494321 C39.268934,0.214494321 41.2856651,-0.979483186 42.0441176,2.26655495 C42.8025701,5.51259309 50.7712719,41.8008801 50.7712719,41.8008801 C50.7712719,41.8008801 51.9131093,43.126714 49.0943592,43.7239056 C48.8941072,43.7663318 48.5415599,43.8292785 48.0593668,43.9096159 C41.754203,44.9601086 13.281936,48.9841004 13.281936,48.9841004 C13.281936,48.9841004 12.6494302,49.5476194 12.2410936,49.5476206 C11.832757,49.5476219 11.4533328,49.251242 10.3901131,49.6935915 C9.3268934,50.1359411 7.56423399,51.3355614 7.56423399,55.764691 C7.56423399,56.6223721 8.62547338,56.9999987 9.14371624,57 C9.6619591,57.0000013 10.2336699,56.3217582 10.760428,56.3217595 C11.2871861,56.3217607 11.9532579,56.6684908 12.6555691,56.5994381 C13.3578802,56.5303855 46.7566225,51.9283174 46.7566225,51.9283174 C46.7566225,51.9283174 49.8761792,51.2724552 49.3533816,49.2397511 C48.8305841,47.2070469 48.3521451,44.5483187 48.3521451,44.5483187" id="Path-19" sketch:type="MSShapeGroup"></path>
            <path d="M47,45 C47,45 45.9844747,48.1307085 46.093071,49.3936418 C44.0440436,49.7081695 7,55 7,55" id="Path-20" sketch:type="MSShapeGroup"></path>
            <path d="M7.44904864,56 L0.0229933338,11.6650289 C0.0229933338,11.6650289 -0.462209444,5.21309008 3.02511686,4.49641308 C3.84271612,4.32838906 3.48976968,4.80209994 4.59661506,4.64663892 C5.70346044,4.49117791 5.55558303,3.74709286 7.62568518,3.74709287 C9.69578733,3.74709287 40.4981649,0.000894958236 40.4981649,0.000894958236 C40.4981649,0.000894958236 42.1389111,-0.207551318 43,5.73793932" id="Path-21" sketch:type="MSShapeGroup"></path>
            <path d="M5,5 L13,49" id="Path-22" sketch:type="MSShapeGroup"></path>
            <path d="M16.2943294,13.8023292 L21.9696869,13.0839422 C21.9696869,13.0839422 22.5023698,12.6350263 22.7184001,13.8134812 C22.9344305,14.991936 23.2468584,16.4358069 23.2468584,17.1063419 C23.2468584,17.7768769 22.8640526,17.7447899 22.8640526,17.7447899 L21.6585552,17.9486674 C21.6585552,17.9486674 21.1671101,17.9249444 21.3376781,18.6133731 C21.5082461,19.3018019 23.5821855,30.3310608 23.7090193,30.9777205 C23.8358532,31.6243802 24.0332089,31.3177529 24.0332089,31.3177529 C24.0332089,31.3177529 25.293242,31.1240135 25.5316435,31.1240134 C25.770045,31.1240132 25.9000472,31.2668596 26.0311537,31.9862603 C26.1622601,32.705661 26.9328164,36.3826048 26.9922007,36.6050349 C27.0515851,36.8274651 26.7689213,37.0286055 26.2443996,37.1262861 C25.7198779,37.2239667 21.7054098,37.9868606 21.279734,37.9868604 C20.8540581,37.9868603 20.3633812,38.1615403 20.205631,37.2370959 C20.0478808,36.3126515 16,14.581545 16,14.1975131 C16,13.8134812 16.2943294,13.8023292 16.2943294,13.8023292 Z" id="Path-23" sketch:type="MSShapeGroup"></path>
            <path d="M26.0306835,12.7356294 C25.9356205,12.3336976 26.0306833,12.0692874 26.7588338,12.0692874 C35.825464,10.6434274 42.267977,31.6486963 30.995227,36 C30.7445883,35.5394106 30.6037913,35.7691015 30.6037913,35.3340108 C30.6037913,34.89892 29.8434873,31.1271815 29.6998942,30.6261784 C34.1028469,27.2271433 31.7620217,17.0450072 26.9657356,16.7601878 C26.2408805,14.2267478 26.1257465,13.1375611 26.0306835,12.7356294 Z" id="Path-24" sketch:type="MSShapeGroup"></path>
        </g>
    </g>
</svg>
