<?xml version="1.0" encoding="UTF-8" standalone="no"?>
<svg width="60px" height="56px" viewBox="0 0 60 56" version="1.1" xmlns="http://www.w3.org/2000/svg" xmlns:xlink="http://www.w3.org/1999/xlink" xmlns:sketch="http://www.bohemiancoding.com/sketch/ns">
    <g id="Page-6" stroke="none" stroke-width="1" fill="none" fill-rule="evenodd" sketch:type="MSPage">
        <g id="Group" sketch:type="MSLayerGroup" transform="translate(0.000000, -0.500000)" stroke="#FFFFFF">
            <path d="M10.5220523,10.4298375 C10.3545898,9.35423813 11.1073068,8.34866944 12.2011034,8.18416622 L50.7748373,2.38281038 C51.8696142,2.21815973 52.893103,2.95818136 53.0603239,4.03222888 L59.9663796,48.3893115 C60.1338421,49.4649108 59.3811251,50.4704795 58.2873284,50.6349827 L19.7135946,56.4363386 C18.6188177,56.6009892 17.5953289,55.8609676 17.428108,54.7869201 L10.5220523,10.4298375 L10.5220523,10.4298375 Z" id="Rectangle-7" stroke-width="2" sketch:type="MSShapeGroup"></path>
            <path d="M4.06726739,14.6552602 C3.71219293,13.6242332 4.27508209,12.5054027 5.32400233,12.1564533 L39.8978357,0.65460514 C40.9469857,0.305579221 42.0852134,0.858098779 42.440409,1.88947745 L56.1449891,41.6833645 C56.5000635,42.7143916 55.9371744,43.833222 54.8882541,44.1821715 L20.3144208,55.6840196 C19.2652708,56.0330455 18.1270431,55.480526 17.7718475,54.4491473 L4.06726739,14.6552602 L4.06726739,14.6552602 Z" id="Rectangle-8" stroke-width="2" opacity="0.692805504" sketch:type="MSShapeGroup"></path>
            <path d="M1.03894246,21.9344924 C0.507421117,20.9803029 0.863985093,19.7830602 1.8342054,19.2609921 L30.7435467,3.7050969 C31.7142796,3.18275293 32.9326774,3.53387425 33.4636186,4.48702234 L52.026772,37.8116773 C52.5582933,38.7658668 52.2017293,39.9631095 51.231509,40.4851776 L22.3221678,56.0410728 C21.3514348,56.5634168 20.133037,56.2122955 19.6020958,55.2591474 L1.03894246,21.9344924 L1.03894246,21.9344924 Z" id="Rectangle-9" opacity="0.394706157" sketch:type="MSShapeGroup"></path>
            <path d="M21.4288283,18.7567165 C21.4288283,18.7567165 29.1751918,17.4006452 34.1603061,16.6719789 C34.2909708,16.659478 34.429919,16.650792 34.5567539,16.6434429 C42.6184863,16.1763319 46.2717418,24.0660193 44.8625458,30.6682959 C43.8312966,35.4998397 39.3408598,39.7198612 29.4925871,39.7198616 C29.4925871,39.7198617 26.9789003,25.658468 26.9789003,25.658468 L32.9923274,24.5499242 C32.9923274,24.5499242 34.4651135,32.8856176 34.4651135,32.8856175 C43.0980259,31.0821612 39.4331442,22.6798485 34.087476,22.6798485 C34.4651135,22.6798486 26.1642823,24.3142402 26.1642823,24.3142402 L24.2092591,22.0373431 L21.4288283,18.7567165 Z" id="Path-32" stroke-width="2" sketch:type="MSShapeGroup"></path>
        </g>
    </g>
</svg>