<svg width="53px" height="59px" viewBox="0 0 53 59" version="1.1" xmlns="http://www.w3.org/2000/svg" xmlns:xlink="http://www.w3.org/1999/xlink" xmlns:sketch="http://www.bohemiancoding.com/sketch/ns">
    <g id="Page-6" stroke="none" stroke-width="1" fill="none" fill-rule="evenodd" sketch:type="MSPage">
        <rect id="Rectangle-1" sketch:type="MSShapeGroup" x="-25" y="-59" width="320" height="456"></rect>
        <g id="Group" sketch:type="MSLayerGroup" transform="translate(2.280702, 0.500000)" stroke="#FFFFFF">
            <path d="M21.1568577,8.30618399 C18.1706646,10.3540243 9.61710855,15.2785984 8.18610717,21.9656802 C6.21686307,31.1679749 0.525310386,38.7340201 0.0136634378,42.4795645 C-0.49798351,46.225109 0.852744913,51.0841404 4.08219603,52.7958894 C7.31164715,54.5076384 15.8294323,56.4658113 33.2590035,50.6098181 C46.5852475,46.1324621 47.1959543,39.6769974 47.1959543,39.6769974 C47.1959543,39.6769974 53.0713942,30.9988455 46.4410491,15.2785984 C46.158997,14.6098655 42.8065747,11.3319906 42.8065747,11.3319906 C42.8065747,11.3319906 42.4220462,9.8656571 43.0542245,9.27207664 C43.6864027,8.67849618 32.2144825,4.32729763 32.2144825,4.32729763 L29.2002305,6.21620913" id="Path-21" sketch:type="MSShapeGroup"></path>
            <path d="M27.1702341,0.0413953993 C27.1702341,0.0413953993 20.5454187,5.26781096 17.0434307,20.8063626 C16.8757183,21.5505137 17.5084756,20.9662769 17.5084756,20.9662769 C17.5084756,20.9662769 21.0751206,8.37492992 28.7285979,0.746102792 C28.7285982,0.746102548 27.1702341,0.0413953993 27.1702341,0.0413953993 Z" id="Path-22" sketch:type="MSShapeGroup"></path>
            <path d="M33.1640914,9.33195213 C33.1640914,9.33195213 27.7745972,9.9703776 28.8557167,0.865607368" id="Path-23" sketch:type="MSShapeGroup"></path>
            <path d="M17.2705854,21.102044 C19.5255406,19.1825788 22.771339,13.5873006 32.7571162,9.68750904" id="Path-24" sketch:type="MSShapeGroup"></path>
            <path d="M42.9605323,8.92834699 L31.5047157,16.6912164" id="Path-25" sketch:type="MSShapeGroup"></path>
            <path d="M42.798035,11.6624146 C42.798035,11.6624146 25.9124658,17.8980894 24.1367069,22.2938865 C22.3609479,26.6896837 21.5716404,29.4042856 21.5716404,29.4042856" id="Path-26" sketch:type="MSShapeGroup"></path>
            <path d="M19.6709586,12.1584201 C19.6709586,12.1584201 11.6114822,16.1841227 10.4700972,24.1786092" id="Path-27" sketch:type="MSShapeGroup"></path>
            <path d="M9.39629745,22.6994629 C9.99846467,22.9899699 12.0143097,27.4641226 12.0143097,27.4641226 C12.0143097,27.4641226 12.2763549,28.6820837 14.6398856,28.993042 C17.0034164,29.3040003 26.7761903,29.6805013 26.7761903,29.6805013 C26.7761903,29.6805013 28.5402377,29.7132727 27.658214,31.3683494 C26.7761903,33.0234262 25.1670765,36.9372626 24.7181349,37.3908872 C24.2691934,37.8445118 22.2177258,41.46587 21.6599648,41.46587 C21.1022037,41.46587 9.49340538,42.0900042 7.96310035,41.2320353 C6.43279532,40.3740664 6.66434179,40.4837149 6.66434179,39.5604497 C6.66434179,38.6371844 6.2315036,35.3780359 6.2315036,34.3002771 C6.2315036,33.2225184 5.78475798,32.9906548 6.46305007,30.9918484 C7.14134216,28.993042 8.79413023,22.4089559 9.39629745,22.6994629 Z" id="Path-28" sketch:type="MSShapeGroup"></path>
            <path d="M35.8304137,27.1790366 L44.7782576,20.9889459 C44.7782576,20.9889459 45.5839124,20.4769242 46.1394775,22.0036259 C46.6950427,23.5303277 48.8284909,32.2731355 45.0744614,40.7111432 C43.9791904,42.0835969 40.0248451,44.6412421 40.0248451,44.6412421 C40.0248451,44.6412421 37.8023406,44.6392718 36.3786592,43.6430709 C34.9549777,42.6468701 34.5060362,41.7420858 34.5060362,41.7420858 C34.5060362,41.7420858 33.6540233,41.1243589 33.6540233,39.539752 C33.6540233,37.9551451 34.9505859,29.6455123 34.9505859,29.6455123 L35.8304137,27.1790366 Z" id="Path-29" sketch:type="MSShapeGroup"></path>
            <path d="M12.8241123,41.9377283 C12.8241123,41.9377283 8.53379287,44.8957746 8.95052772,54.2060434" id="Path-30" sketch:type="MSShapeGroup"></path>
            <path d="M6.34349499,36.185739 C6.34349499,36.185739 -0.292543963,42.2996917 1.91629715,50.1234221" id="Path-31" sketch:type="MSShapeGroup"></path>
        </g>
    </g>
</svg>