<svg width="61px" height="57px" viewBox="0 0 61 57" version="1.1" xmlns="http://www.w3.org/2000/svg" xmlns:xlink="http://www.w3.org/1999/xlink" xmlns:sketch="http://www.bohemiancoding.com/sketch/ns">
    <g id="Page-6" stroke="none" stroke-width="1" fill="none" fill-rule="evenodd" sketch:type="MSPage">
        <g id="xcode" sketch:type="MSLayerGroup" transform="translate(1.000000, -4.000000)" stroke="#FFFFFF">
            <path d="M7.10459184,31.8888889 L47.8954082,26.1111111" id="Line" stroke-linecap="square" sketch:type="MSShapeGroup"></path>
            <path d="M8.10301508,37.8965517 L48.8969849,32.1034483" id="Line" stroke-linecap="square" sketch:type="MSShapeGroup"></path>
            <path d="M44.1111111,25.1022727 L45.8888889,33.8977273" id="Line" stroke-linecap="square" sketch:type="MSShapeGroup"></path>
            <path d="M0.375027421,14.659739 L5.04806925,54.3960887 L56.4526112,46.5229902 L48.8818388,8.58009508 L0.375027421,14.659739 Z" id="Rectangle-1" sketch:type="MSShapeGroup"></path>
            <path d="M30.3676782,9.94458101 C31.7324235,10.2604263 33.6292059,11.3404611 33.8669462,11.745099 C34.5076525,12.8355917 35.1299162,14.8372898 35.1299162,14.8372898 C35.1299162,14.8372898 34.5622845,24.0952135 34.1336489,27.5681859 C31.5778858,35.2022419 30.3676782,59.7915636 30.3676782,59.7915636 L38.4705505,61 C38.4705505,61 39.9350795,37.779794 38.9539364,28.1420041 C38.9539362,21.2348691 39.720455,14.8372898 39.720455,14.8372898 C39.720455,14.8372898 40.8184922,12.9504003 41.5815249,12.1102639 C42.3486126,11.2656629 42.898884,10.8129555 43.8704034,10.6011692 C44.8419228,10.3893829 45.8900397,10.8983993 46.5668347,10.8983993 C47.0188781,10.8983993 48.3321117,12.2314426 48.3321117,12.2314426 C48.3321117,12.2314426 48.7853765,12.6822606 49.0107574,12.770304 C49.3930423,12.9196408 51.2452675,12.6959647 51.2452675,12.6959647 C51.2452675,12.6959647 52.008036,10.4447685 51.9999359,9.52375913 C51.9911302,8.52250261 51.7279184,6.12171824 51.7279184,6.12171824 L49.8401448,5.83880245 C49.8401448,5.83880245 46.4368044,6.78925795 45.8731756,6.78925795 C45.6313747,6.78925791 44.5296147,6.70272947 43.8704034,6.19605753 C43.2111922,5.68938559 42.270164,4.12925011 42.157277,4.13031528 C41.4821133,4.13668597 36.5541773,3.68793856 31.9798615,4.42009676 C30.2079955,4.70369916 27.3150818,6.2026602 24.3104455,8.16369052 C21.4265954,10.0458881 19.8984208,12.9997628 20.0052443,13.3130005 C20.2769917,14.1098429 20.3502855,14.8155376 20.4791422,14.6890976 C20.713463,14.4591715 22.2645817,13.3130004 22.2645817,13.3130004 C22.2645817,13.3130004 24.4091032,11.4649535 26.4912189,10.7444891 C27.6422501,10.3462033 28.9251078,9.61072448 30.3676782,9.94458101 Z" id="Path" sketch:type="MSShapeGroup" transform="translate(36.000000, 32.500000) rotate(18.000000) translate(-36.000000, -32.500000) "></path>
            <path d="M11.0714286,30.106383 L11.9285714,39.893617" id="Line" stroke-linecap="square" sketch:type="MSShapeGroup"></path>
            <path d="M14.3966913,41.9863063 C14.3966913,41.9863063 21.786552,25.4888458 22.8853606,22.7791456 C24.1272118,19.8547211 27.8239554,20.6432593 26.8333353,24.3537888 C25.0048081,28.3635942 18.583406,43.1187274 18.583406,43.1187274 L14,48 L14.3966913,41.9863063 Z" id="Path-17" sketch:type="MSShapeGroup"></path>
            <path d="M24.2115922,17.3666282 C24.2115922,17.3666282 34.052427,31.7346037 38.04635,35.4998386 C38.7260631,37.2711345 42.2659653,42.4690834 42.6498248,42.7477465 C43.0336843,43.0264096 45.1058766,43.1271633 45.5280612,42.7729862 C45.9502458,42.4188091 46.2503578,40.6838339 45.7040728,39.9845085 C45.1577878,39.2851832 40.3935098,34.5485263 40.3935098,34.5485263 L38.1728528,31.8372926 C34.0009007,26.7436932 25.6569965,16.5564943 25.6569965,16.5564943 C25.6569965,16.5564943 25.1464005,15.5508037 24.3896316,16.2433574 C23.6328627,16.9359111 24.2115922,17.3666282 24.2115922,17.3666282 Z" id="Path-18" sketch:type="MSShapeGroup"></path>
        </g>
    </g>
</svg>
