<svg width="29px" height="24px" viewBox="0 0 29 24" version="1.1" xmlns="http://www.w3.org/2000/svg" xmlns:xlink="http://www.w3.org/1999/xlink" xmlns:sketch="http://www.bohemiancoding.com/sketch/ns">
    <g stroke="none" stroke-width="1" fill="none" fill-rule="evenodd" sketch:type="MSPage">
        <path d="M25.5093577,3.71593523 C26.7341238,2.98173953 27.6749259,1.8191464 28.1177846,0.43375064 C26.9713842,1.11372477 25.701798,1.60733174 24.3503794,1.87336628 C23.2683169,0.720314477 21.7264813,-8.8817842e-15 20.0201095,-8.8817842e-15 C16.7438531,-8.8817842e-15 14.0874244,2.65613866 14.0874244,5.9323968 C14.0874244,6.3973764 14.1399077,6.8502114 14.241116,7.28439535 C9.31053599,7.03701355 4.93920581,4.67510012 2.01312942,1.0858207 C1.50246134,1.961995 1.20982436,2.98101791 1.20982436,4.06828523 C1.20982436,6.12657203 2.25718634,7.94239355 3.84904692,9.00623663 C2.87658081,8.97544099 1.96180279,8.70853983 1.16196762,8.26423622 C1.1612932,8.28895872 1.1612932,8.31382622 1.1612932,8.33884041 C1.1612932,11.2131569 3.20628047,13.6107808 5.92025221,14.1561494 C5.42245203,14.2917682 4.89833773,14.3642041 4.35730564,14.3642041 C3.97502831,14.3642041 3.60345064,14.326902 3.2411243,14.257791 C3.99613762,16.6146429 6.18700837,18.3298344 8.7831457,18.3775462 C6.75276297,19.9688301 4.19479605,20.917297 1.41518145,20.917297 C0.93632064,20.917297 0.464112965,20.889103 0,20.8343048 C2.62548802,22.517689 5.74385971,23.4998431 9.09414372,23.4998431 C20.0062772,23.4998431 25.9736628,14.4600643 25.9736628,6.62017901 C25.9736628,6.36296587 25.9678797,6.10719767 25.9564584,5.85258779 C27.1154367,5.01631715 28.1211584,3.97155674 28.916512,2.78178285 C27.8527634,3.25370221 26.7092546,3.57250831 25.5093577,3.71593523 Z"
          id="twitter-subtitle-bird" fill="#C4B7B3" sketch:type="MSShapeGroup"></path>
    </g>
</svg>
